<svg width="207" height="37" viewBox="0 0 207 37" fill="none" xmlns="http://www.w3.org/2000/svg">
<path d="M14.0718 23.1595H4.91656V17.886H14.0718C15.5692 17.886 16.7818 17.6419 17.7095 17.1536C18.6535 16.649 19.3453 15.9654 19.7847 15.1028C20.2242 14.2239 20.4439 13.2229 20.4439 12.0999C20.4439 11.0094 20.2242 9.99214 19.7847 9.04813C19.3453 8.10412 18.6535 7.33914 17.7095 6.7532C16.7818 6.16727 15.5692 5.8743 14.0718 5.8743H7.11383V36.1233H0.399963V0.576447H14.0718C16.8388 0.576447 19.1988 1.07287 21.1519 2.0657C23.1213 3.04227 24.6187 4.40132 25.6441 6.14285C26.6858 7.86811 27.2066 9.83751 27.2066 12.0511C27.2066 14.346 26.6858 16.3235 25.6441 17.9837C24.6187 19.6438 23.1213 20.9215 21.1519 21.8167C19.1988 22.7119 16.8388 23.1595 14.0718 23.1595ZM47.7144 29.8489V9.70731H54.2086V36.1233H48.105L47.7144 29.8489ZM48.5445 24.3802L50.5464 24.3313C50.5464 26.1054 50.3511 27.7412 49.9605 29.2386C49.5699 30.736 48.9595 32.038 48.1295 33.1448C47.3157 34.2353 46.2821 35.0898 45.0289 35.7083C43.7756 36.3105 42.2945 36.6116 40.5855 36.6116C39.2834 36.6116 38.0953 36.4326 37.0211 36.0745C35.9468 35.7001 35.0191 35.1223 34.2379 34.3411C33.4729 33.5436 32.8788 32.5263 32.4556 31.2893C32.0325 30.0361 31.8209 28.5305 31.8209 26.7727V9.70731H38.2662V26.8216C38.2662 27.7005 38.3638 28.4329 38.5591 29.0188C38.7707 29.6048 39.0556 30.0849 39.4136 30.4593C39.788 30.8173 40.2193 31.0777 40.7076 31.2405C41.2121 31.387 41.7492 31.4602 42.3189 31.4602C43.8814 31.4602 45.1102 31.151 46.0054 30.5325C46.9169 29.8977 47.5679 29.0514 47.9586 27.9934C48.3492 26.9192 48.5445 25.7148 48.5445 24.3802ZM66.3668 15.1028V36.1233H59.9214V9.70731H66.025L66.3668 15.1028ZM74.399 9.53641L74.3013 15.5423C73.9433 15.4772 73.5364 15.4283 73.0806 15.3958C72.6412 15.3632 72.2261 15.347 71.8355 15.347C70.8427 15.347 69.9719 15.4853 69.2232 15.762C68.4745 16.0224 67.8479 16.4049 67.3433 16.9095C66.855 17.414 66.4807 18.0325 66.2203 18.7649C65.9599 19.4811 65.8134 20.2949 65.7808 21.2063L64.3892 21.0354C64.3892 19.359 64.5601 17.8046 64.9019 16.3723C65.2437 14.9401 65.7401 13.6868 66.3912 12.6126C67.0422 11.5384 67.856 10.7083 68.8326 10.1223C69.8254 9.52013 70.9647 9.21902 72.2505 9.21902C72.6086 9.21902 72.9911 9.25158 73.398 9.31668C73.8212 9.36551 74.1548 9.43875 74.399 9.53641ZM89.316 36.6116C87.314 36.6116 85.5155 36.2861 83.9205 35.635C82.3254 34.984 80.9664 34.0807 79.8433 32.9251C78.7366 31.7532 77.8821 30.3942 77.2798 28.8479C76.6939 27.2854 76.4009 25.609 76.4009 23.8186V22.8421C76.4009 20.8076 76.6939 18.9602 77.2798 17.3001C77.8658 15.6236 78.6959 14.1832 79.7701 12.9788C80.8443 11.7744 82.1301 10.8466 83.6275 10.1956C85.1249 9.54455 86.7769 9.21902 88.5836 9.21902C90.4553 9.21902 92.1073 9.53641 93.5396 10.1712C94.9719 10.7897 96.1682 11.6686 97.1285 12.8079C98.0888 13.9472 98.813 15.3144 99.3013 16.9095C99.7896 18.4882 100.034 20.2379 100.034 22.1585V24.8684H79.3306V20.4251H93.6861V19.9368C93.6535 18.9114 93.4582 17.9755 93.1002 17.1292C92.7421 16.2666 92.1887 15.583 91.44 15.0784C90.6913 14.5576 89.7229 14.2971 88.5347 14.2971C87.5744 14.2971 86.7362 14.5087 86.0201 14.9319C85.3202 15.3388 84.7343 15.9248 84.2623 16.6897C83.8065 17.4384 83.4647 18.3336 83.2369 19.3753C83.009 20.4169 82.8951 21.5725 82.8951 22.8421V23.8186C82.8951 24.9254 83.0416 25.9508 83.3345 26.8948C83.6438 27.8388 84.0914 28.6608 84.6773 29.3606C85.2795 30.0442 85.9957 30.5813 86.8257 30.972C87.6721 31.3463 88.6324 31.5335 89.7066 31.5335C91.0575 31.5335 92.2782 31.2731 93.3687 30.7522C94.4755 30.2151 95.4358 29.4257 96.2496 28.3841L99.4966 31.7532C98.9433 32.567 98.1946 33.3483 97.2505 34.097C96.3228 34.8457 95.1998 35.456 93.8814 35.928C92.563 36.3837 91.0412 36.6116 89.316 36.6116ZM111.557 0.576447V36.1233H104.843V0.576447H111.557ZM125.888 15.9329V21.2307H109.799V15.9329H125.888ZM127.768 0.576447V5.8743H109.799V0.576447H127.768ZM145.566 30.5081V18.3255C145.566 17.4303 145.411 16.6572 145.102 16.0061C144.793 15.3551 144.321 14.8505 143.686 14.4925C143.051 14.1344 142.246 13.9554 141.269 13.9554C140.406 13.9554 139.65 14.1018 138.999 14.3948C138.364 14.6878 137.876 15.1028 137.534 15.6399C137.192 16.1608 137.021 16.763 137.021 17.4466H130.551C130.551 16.3561 130.812 15.3225 131.333 14.346C131.853 13.3531 132.594 12.4742 133.554 11.7093C134.531 10.928 135.695 10.3177 137.045 9.8782C138.413 9.43875 139.943 9.21902 141.635 9.21902C143.637 9.21902 145.419 9.56082 146.982 10.2444C148.561 10.9117 149.798 11.9208 150.693 13.2718C151.604 14.6227 152.06 16.3235 152.06 18.3743V29.8977C152.06 31.2161 152.141 32.3473 152.304 33.2913C152.483 34.219 152.744 35.0247 153.086 35.7083V36.1233H146.518C146.209 35.456 145.973 34.6096 145.81 33.5843C145.647 32.5426 145.566 31.5172 145.566 30.5081ZM146.469 20.0345L146.518 23.8675H142.441C141.432 23.8675 140.545 23.9733 139.78 24.1848C139.015 24.3802 138.388 24.6731 137.9 25.0638C137.412 25.4381 137.045 25.8938 136.801 26.4309C136.557 26.9518 136.435 27.5458 136.435 28.2132C136.435 28.8642 136.582 29.4501 136.875 29.971C137.184 30.4918 137.623 30.9069 138.193 31.2161C138.779 31.5091 139.462 31.6555 140.244 31.6555C141.383 31.6555 142.376 31.4277 143.222 30.972C144.069 30.4999 144.728 29.9303 145.2 29.263C145.672 28.5957 145.924 27.9609 145.957 27.3587L147.812 30.1419C147.584 30.8092 147.242 31.5172 146.787 32.2659C146.331 33.0146 145.745 33.7145 145.029 34.3655C144.313 35.0166 143.45 35.5537 142.441 35.9768C141.432 36.4 140.26 36.6116 138.925 36.6116C137.216 36.6116 135.686 36.2698 134.336 35.5862C132.985 34.9026 131.919 33.9667 131.137 32.7786C130.356 31.5904 129.965 30.2395 129.965 28.7259C129.965 27.3261 130.226 26.0891 130.747 25.0149C131.267 23.9407 132.041 23.0374 133.066 22.305C134.091 21.5563 135.361 20.9947 136.875 20.6204C138.405 20.2298 140.154 20.0345 142.124 20.0345H146.469ZM168.711 31.5335C169.622 31.5335 170.436 31.3544 171.152 30.9964C171.868 30.6383 172.438 30.1337 172.861 29.4827C173.3 28.8317 173.536 28.0748 173.569 27.2122H179.648C179.615 29.0026 179.111 30.6057 178.134 32.0218C177.158 33.4378 175.856 34.5608 174.228 35.3909C172.617 36.2047 170.81 36.6116 168.808 36.6116C166.774 36.6116 165 36.2698 163.486 35.5862C161.972 34.9026 160.711 33.9505 159.702 32.7298C158.709 31.5091 157.96 30.093 157.456 28.4817C156.967 26.8704 156.723 25.1451 156.723 23.3059V22.5247C156.723 20.6855 156.967 18.9602 157.456 17.3489C157.96 15.7376 158.709 14.3216 159.702 13.1009C160.711 11.8802 161.972 10.928 163.486 10.2444C165 9.56082 166.766 9.21902 168.784 9.21902C170.916 9.21902 172.788 9.63406 174.399 10.4641C176.027 11.2942 177.296 12.4661 178.208 13.9798C179.135 15.4934 179.615 17.2757 179.648 19.3264H173.569C173.536 18.3824 173.325 17.5361 172.934 16.7874C172.544 16.0387 171.99 15.4365 171.274 14.9807C170.558 14.525 169.687 14.2971 168.662 14.2971C167.571 14.2971 166.66 14.525 165.927 14.9807C165.211 15.4365 164.65 16.0631 164.243 16.8606C163.852 17.6419 163.575 18.5208 163.413 19.4973C163.266 20.4576 163.193 21.4667 163.193 22.5247V23.3059C163.193 24.3802 163.266 25.4055 163.413 26.3821C163.575 27.3587 163.852 28.2376 164.243 29.0188C164.65 29.7838 165.211 30.3942 165.927 30.8499C166.66 31.3056 167.587 31.5335 168.711 31.5335ZM195.81 36.6116C193.808 36.6116 192.01 36.2861 190.415 35.635C188.82 34.984 187.461 34.0807 186.337 32.9251C185.231 31.7532 184.376 30.3942 183.774 28.8479C183.188 27.2854 182.895 25.609 182.895 23.8186V22.8421C182.895 20.8076 183.188 18.9602 183.774 17.3001C184.36 15.6236 185.19 14.1832 186.264 12.9788C187.338 11.7744 188.624 10.8466 190.122 10.1956C191.619 9.54455 193.271 9.21902 195.078 9.21902C196.949 9.21902 198.601 9.53641 200.034 10.1712C201.466 10.7897 202.662 11.6686 203.623 12.8079C204.583 13.9472 205.307 15.3144 205.795 16.9095C206.284 18.4882 206.528 20.2379 206.528 22.1585V24.8684H185.825V20.4251H200.18V19.9368C200.148 18.9114 199.952 17.9755 199.594 17.1292C199.236 16.2666 198.683 15.583 197.934 15.0784C197.185 14.5576 196.217 14.2971 195.029 14.2971C194.069 14.2971 193.23 14.5087 192.514 14.9319C191.814 15.3388 191.228 15.9248 190.756 16.6897C190.301 17.4384 189.959 18.3336 189.731 19.3753C189.503 20.4169 189.389 21.5725 189.389 22.8421V23.8186C189.389 24.9254 189.536 25.9508 189.829 26.8948C190.138 27.8388 190.586 28.6608 191.171 29.3606C191.774 30.0442 192.49 30.5813 193.32 30.972C194.166 31.3463 195.127 31.5335 196.201 31.5335C197.552 31.5335 198.772 31.2731 199.863 30.7522C200.97 30.2151 201.93 29.4257 202.744 28.3841L205.991 31.7532C205.437 32.567 204.689 33.3483 203.745 34.097C202.817 34.8457 201.694 35.456 200.376 35.928C199.057 36.3837 197.535 36.6116 195.81 36.6116Z" fill="#2A2A2A"/>
</svg>
